<svg xmlns="http://www.w3.org/2000/svg" fill="none" viewBox="0 0 100 100" id="React-Query-Icon--Streamline-Svg-Logos" height="100" width="100">
  <desc>
    React Query Icon Streamline Icon: https://streamlinehq.com
  </desc>
  <path fill="#00435b" d="m61.46708333333334 60.64770833333334 -1.878125 3.261458333333333c-0.5658333333333334 0.9823958333333335 -1.6132291666666667 1.5879166666666669 -2.746979166666667 1.5879166666666669H42.453854166666666c-1.13375 0 -2.181145833333334 -0.6055208333333334 -2.746979166666667 -1.5879166666666669l-1.8783333333333334 -3.261458333333333h23.63854166666667Zm5.258125 -9.129999999999999 -3.3117708333333336 5.750312500000001h-27.53125l-3.3115625000000004 -5.750312500000001h34.15458333333334Zm-3.190104166666667 -8.928020833333333 3.195416666666667 5.548541666666667H32.565312500000005l3.1953125 -5.548541666666667h27.77447916666667Zm-6.693125 -8.44c1.13375 0 2.181145833333334 0.6055208333333334 2.746979166666667 1.5879166666666669l1.9997916666666669 3.4723958333333336H37.70697916666667l1.9998958333333334 -3.4723958333333336c0.5658333333333334 -0.9823958333333335 1.6132291666666667 -1.5879166666666669 2.746979166666667 -1.5879166666666669h14.388125Z" stroke-width="1.0417"></path>
  <path fill="#002b3b" d="M21.513437500000002 32.63677083333334c-1.5938541666666668 -7.7285416666666675 -1.9358333333333335 -13.65625 -0.905625 -17.960520833333334 0.6127083333333333 -2.56 1.7329166666666667 -4.648395833333334 3.4363541666666673 -6.155135416666667 1.7983333333333333 -1.5907187500000002 4.071979166666667 -2.371291666666667 6.626666666666667 -2.371291666666667 4.214583333333334 0 8.645000000000001 1.921875 13.379791666666668 5.572885416666667 1.9312500000000001 1.4892708333333333 3.9356250000000004 3.2842708333333333 6.017187500000001 5.386041666666667 0.16572916666666668 -0.21333333333333335 0.35302083333333334 -0.4144791666666667 0.5616666666666668 -0.6004166666666667 5.885104166666667 -5.244479166666667 10.839791666666667 -8.502875000000001 15.077604166666669 -9.759229166666668 2.519791666666667 -0.7470208333333334 4.885625 -0.8181979166666667 7.04 -0.09317708333333334 2.2740625000000003 0.7653020833333334 4.0860416666666675 2.34728125 5.3644791666666665 4.563135416666666 2.1097916666666667 3.656979166666667 2.666145833333333 8.462291666666667 1.8795833333333334 14.395520833333334 -0.32062500000000005 2.4184375 -0.86875 5.0529166666666665 -1.6432291666666667 7.9072916666666675 0.29218750000000004 0.035312500000000004 0.5851041666666666 0.10010416666666667 0.8751041666666667 0.19614583333333335 7.466875 2.474375 12.754166666666668 5.1353125 15.955208333333335 8.176354166666668 1.9045833333333335 1.8092708333333336 3.148229166666667 3.823541666666667 3.5978125000000003 6.053229166666667 0.47458333333333336 2.3534375 0.011875000000000002 4.714062500000001 -1.265 6.928229166666667 -2.1059375 3.651666666666667 -5.978020833333334 6.531770833333334 -11.494375 8.812916666666668 -2.215 0.9159375000000001 -4.721145833333334 1.7455208333333334 -7.52125 2.4916666666666667 0.12781250000000002 0.2884375 0.22687500000000002 0.5947916666666666 0.29322916666666665 0.9162500000000001 1.5938541666666668 7.7284375 1.9358333333333335 13.656145833333333 0.905625 17.960520833333334 -0.6127083333333333 2.56 -1.7330208333333335 4.648333333333333 -3.4363541666666673 6.155104166666667 -1.7983333333333333 1.5907291666666667 -4.071979166666667 2.3712500000000003 -6.6267708333333335 2.3712500000000003 -4.214479166666667 0 -8.645000000000001 -1.921875 -13.379791666666668 -5.572916666666667 -1.9517708333333335 -1.5050000000000001 -3.978229166666667 -3.322395833333333 -6.083645833333334 -5.453125000000001 -0.21666666666666667 0.3388541666666667 -0.48260416666666667 0.65375 -0.7971875 0.9341666666666668 -5.885104166666667 5.244375000000001 -10.839791666666667 8.5028125 -15.077604166666669 9.759166666666667 -2.519791666666667 0.7469791666666666 -4.885625 0.818125 -7.04 0.093125 -2.2740625000000003 -0.7653125000000001 -4.0860416666666675 -2.347291666666667 -5.3644791666666665 -4.563125 -2.1097916666666667 -3.656979166666667 -2.666145833333333 -8.4621875 -1.8795833333333334 -14.395520833333334 0.3321875 -2.505833333333334 0.9086458333333334 -5.243645833333334 1.7280208333333336 -8.217708333333334 -0.3202083333333334 -0.03239583333333333 -0.641875 -0.10010416666666667 -0.9598958333333334 -0.20552083333333335 -7.466875 -2.4744791666666672 -12.754156250000001 -5.135416666666667 -15.955229166666667 -8.176354166666668 -1.9045520833333336 -1.8092708333333336 -3.1482500000000004 -3.823541666666667 -3.597833333333334 -6.053229166666667 -0.4745447916666667 -2.3534375 -0.011833333333333335 -4.714062500000001 1.2650833333333333 -6.928229166666667 2.10590625 -3.651666666666667 5.97803125 -6.531770833333334 11.494333333333335 -8.812916666666668 2.281041666666667 -0.9433333333333334 4.870729166666667 -1.7948958333333336 7.772291666666668 -2.558125 -0.10333333333333333 -0.253125 -0.18500000000000003 -0.5191666666666667 -0.24218750000000003 -0.7964583333333334Z" stroke-width="1.0417"></path>
  <path fill="#ff4154" d="M73.57885416666667 67.85604166666667c0.7425 -0.1315625 1.4538541666666667 0.34447916666666667 1.6196875000000002 1.0746875000000002l0.0090625 0.04322916666666667 0.07916666666666668 0.41093750000000007c2.5663541666666667 13.4928125 0.7585416666666667 20.239270833333336 -5.4236458333333335 20.239270833333336 -6.048541666666668 0 -13.748333333333333 -5.756666666666667 -23.099270833333335 -17.270208333333333 -0.20666666666666667 -0.254375 -0.31812500000000005 -0.5728125000000001 -0.31531250000000005 -0.9005208333333334 0.0067708333333333336 -0.7634375000000001 0.619375 -1.3796875000000002 1.3773958333333334 -1.3962500000000002l0.043854166666666666 -0.00020833333333333335 0.49239583333333337 0.0034375c3.9350000000000005 0.02135416666666667 7.760312500000001 -0.11583333333333333 11.476041666666667 -0.41156250000000005 4.38625 -0.34906250000000005 8.966458333333334 -0.9466666666666668 13.740625000000001 -1.7928125000000001Zm-42.45645833333334 -10.199270833333333 0.023645833333333338 0.04 0.24708333333333335 0.43125c1.9801041666666668 3.4423958333333338 4.043125000000001 6.7096875 6.188958333333334 9.801875 2.5271875 3.6415625 5.3690625 7.328020833333334 8.525729166666666 11.059375000000001 0.48833333333333334 0.5772916666666668 0.43250000000000005 1.4340625000000002 -0.11833333333333335 1.9436458333333333l-0.035833333333333335 0.03208333333333334 -0.31770833333333337 0.2733333333333334c-10.444166666666668 8.949062500000002 -17.232395833333335 10.735520833333334 -20.364895833333335 5.359583333333334 -3.066145833333333 -5.2621875000000005 -1.954479166666667 -14.830416666666668 3.3350000000000004 -28.704583333333336 0.11625000000000002 -0.30489583333333337 0.33468749999999997 -0.56 0.6180208333333335 -0.7216666666666667 0.6622916666666667 -0.37802083333333336 1.5019791666666666 -0.1597916666666667 1.8983333333333334 0.4851041666666667ZM78.87875000000001 37.746875l0.0428125 0.013958333333333335 0.39312500000000006 0.13572916666666668C92.20625000000001 42.38104166666667 97.10416666666667 47.309375 94.00822916666668 52.68145833333333c-3.027916666666667 5.253958333333334 -11.830312500000002 9.079375 -26.40729166666667 11.476145833333334 -0.3251041666666667 0.0534375 -0.6586458333333334 -0.00875 -0.9426041666666668 -0.17572916666666666 -0.6707291666666667 -0.39427083333333335 -0.8948958333333333 -1.2577083333333334 -0.5005208333333333 -1.9285416666666668 2.0878125000000005 -3.5514583333333336 3.9682291666666667 -7.085208333333334 5.641145833333334 -10.601145833333334 1.8973958333333334 -3.987604166666667 3.677916666666667 -8.267708333333335 5.341666666666667 -12.840312500000001 0.2522916666666667 -0.6933333333333334 0.9932291666666667 -1.0698958333333333 1.6952083333333334 -0.8775000000000001l0.04291666666666667 0.0125Zm-45.537708333333335 -2.2578125c0.6707291666666667 0.39427083333333335 0.8948958333333333 1.2577083333333334 0.5005208333333333 1.9285416666666668 -2.0878125000000005 3.5514583333333336 -3.9682291666666667 7.085208333333334 -5.641145833333334 10.60125 -1.8973958333333334 3.9875000000000003 -3.677916666666667 8.267604166666667 -5.341666666666667 12.840312500000001 -0.2573958333333333 0.7073958333333334 -1.0237500000000002 1.0850000000000002 -1.7381250000000001 0.8648958333333334l-0.0428125 -0.013958333333333335 -0.39312500000000006 -0.13572916666666668C7.793083333333334 57.08989583333334 2.89521875 52.1615625 5.991114583333334 46.78958333333333c3.027885416666667 -5.2540625 11.83034375 -9.079479166666667 26.40732291666667 -11.476250000000002 0.3251041666666667 -0.0534375 0.6585416666666667 0.00875 0.9426041666666668 0.17572916666666666Zm41.38729166666667 -22.087708333333335c3.066145833333333 5.2621875000000005 1.954479166666667 14.830416666666668 -3.3350000000000004 28.704583333333336 -0.11625000000000002 0.30489583333333337 -0.33468749999999997 0.56 -0.6180208333333335 0.7217708333333334 -0.6622916666666667 0.3779166666666667 -1.5019791666666666 0.1596875 -1.8983333333333334 -0.48520833333333335l-0.023645833333333338 -0.04 -0.24708333333333335 -0.43125c-1.9801041666666668 -3.4423958333333338 -4.043125000000001 -6.7096875 -6.188958333333334 -9.801875 -2.5271875 -3.6414583333333335 -5.3690625 -7.328020833333334 -8.525729166666666 -11.059375000000001 -0.48833333333333334 -0.5772916666666668 -0.4326041666666667 -1.4340625000000002 0.11833333333333335 -1.9436458333333333l0.035833333333333335 -0.03208333333333334 0.3176041666666667 -0.2733333333333334C64.8075 9.811927083333334 71.59583333333333 8.025416666666667 74.72833333333334 13.401354166666668ZM30.664479166666666 10.198979166666668c6.048645833333334 0 13.7484375 5.756750000000001 23.099375000000002 17.270187500000002 0.20666666666666667 0.254375 0.31812500000000005 0.5728125000000001 0.31531250000000005 0.9005208333333334 -0.0067708333333333336 0.7634375000000001 -0.619375 1.3796875000000002 -1.3773958333333334 1.3962500000000002l-0.043854166666666666 0.0003125 -0.49239583333333337 -0.003541666666666667c-3.9350000000000005 -0.02135416666666667 -7.760312500000001 0.11583333333333333 -11.476041666666667 0.41156250000000005 -4.38625 0.3491666666666667 -8.966458333333334 0.9467708333333335 -13.740625000000001 1.7928125000000001 -0.7425 0.1315625 -1.4539583333333335 -0.34437500000000004 -1.6196875000000002 -1.0745833333333334l-0.0090625 -0.043333333333333335 -0.07916666666666668 -0.41093750000000007c-2.5664583333333333 -13.4928125 -0.7585416666666667 -20.239250000000002 5.423541666666667 -20.239250000000002Z" stroke-width="1.0417"></path>
  <path fill="#ffd94c" d="M43.61000000000001 34.32666666666667h12.077395833333334c1.76625 0 3.3976041666666665 0.9446875000000001 4.276770833333333 2.4765625l6.064166666666667 10.566562500000002c0.8723958333333334 1.5201041666666668 0.8723958333333334 3.3889583333333335 0 4.9089583333333335l-6.064166666666667 10.566562500000002c-0.8791666666666667 1.531875 -2.5105208333333335 2.4765625 -4.276770833333333 2.4765625H43.61000000000001c-1.76625 0 -3.3976041666666665 -0.9446875000000001 -4.276770833333333 -2.4765625l-6.0642708333333335 -10.566562500000002c-0.8722916666666668 -1.5200000000000002 -0.8722916666666668 -3.388854166666667 0 -4.9089583333333335l6.0642708333333335 -10.566562500000002c0.8791666666666667 -1.531875 2.5105208333333335 -2.4765625 4.276770833333333 -2.4765625Zm10.236666666666666 3.1892708333333335c1.7671875 0 3.3992708333333335 0.9456250000000002 4.2780208333333345 2.478854166666667l4.22875 7.377291666666667c0.8706250000000001 1.5188541666666666 0.8706250000000001 3.385520833333334 0 4.904375l-4.22875 7.377395833333334c-0.87875 1.533125 -2.5108333333333337 2.478854166666667 -4.2780208333333345 2.478854166666667h-8.396041666666667c-1.7671875 0 -3.399166666666667 -0.9457291666666667 -4.2780208333333345 -2.478854166666667l-4.22875 -7.377395833333334c-0.8706250000000001 -1.5188541666666666 -0.8706250000000001 -3.385520833333334 0 -4.904375l4.22875 -7.377291666666667c0.8788541666666667 -1.5332291666666669 2.5108333333333337 -2.478854166666667 4.2780208333333345 -2.478854166666667h8.396041666666667Zm-1.9840625000000003 3.488125h-4.4279166666666665c-1.7654166666666669 0 -3.396041666666667 0.9437500000000001 -4.275625 2.4744791666666672l-2.2345833333333336 3.889166666666667c-0.8739583333333334 1.5211458333333334 -0.8739583333333334 3.392083333333334 0 4.913229166666667l2.2345833333333336 3.8890625c0.8795833333333334 1.5307291666666667 2.510208333333334 2.4744791666666672 4.275625 2.4744791666666672h4.4279166666666665c1.7654166666666669 0 3.3961458333333336 -0.9437500000000001 4.275625 -2.4744791666666672l2.2345833333333336 -3.8890625c0.8739583333333334 -1.5211458333333334 0.8739583333333334 -3.392083333333334 0 -4.913229166666667l-2.2345833333333336 -3.889166666666667c-0.8794791666666668 -1.5307291666666667 -2.510208333333334 -2.4744791666666672 -4.275625 -2.4744791666666672Zm-1.9103125000000003 3.33875c1.7640625 0 3.3937500000000003 0.9423958333333333 4.273645833333333 2.47125l0.3168750000000001 0.5504166666666667c0.8764583333333335 1.5227083333333333 0.8764583333333335 3.3968750000000005 0 4.919583333333334l-0.3168750000000001 0.5504166666666667c-0.8798958333333334 1.5289583333333334 -2.5095833333333335 2.47125 -4.273645833333333 2.47125h-0.6072916666666667c-1.7640625 0 -3.3936458333333333 -0.9422916666666666 -4.273645833333333 -2.47125l-0.3168750000000001 -0.5504166666666667c-0.8764583333333335 -1.5227083333333333 -0.8764583333333335 -3.3968750000000005 0 -4.919583333333334l0.3168750000000001 -0.5504166666666667c0.88 -1.5288541666666668 2.5095833333333335 -2.47125 4.273645833333333 -2.47125h0.6072916666666667Zm-0.30281250000000004 3.2888541666666673c-0.7852083333333334 0 -1.5092708333333336 0.4179166666666667 -1.90125 1.0963541666666667 -0.3919791666666667 0.6782291666666668 -0.3919791666666667 1.5142708333333335 0 2.192604166666667 0.3919791666666667 0.6783333333333333 1.1160416666666666 1.0962500000000002 1.8995833333333336 1.0962500000000002 0.7852083333333334 0 1.5092708333333336 -0.4179166666666667 1.90125 -1.0962500000000002 0.3919791666666667 -0.6783333333333333 0.3919791666666667 -1.514375 0 -2.192604166666667 -0.3919791666666667 -0.6784375 -1.1160416666666666 -1.0963541666666667 -1.8995833333333336 -1.0963541666666667Zm-17.789166666666667 2.192604166666667h3.947604166666667Z" stroke-width="1.0417"></path>
</svg>